<?xml version="1.0" encoding="UTF-8" standalone="no"?>
<!-- Created with Inkscape (http://www.inkscape.org/) -->
<svg xmlns:dc="http://purl.org/dc/elements/1.1/" xmlns:cc="http://creativecommons.org/ns#" xmlns:rdf="http://www.w3.org/1999/02/22-rdf-syntax-ns#" xmlns:svg="http://www.w3.org/2000/svg" xmlns="http://www.w3.org/2000/svg" xmlns:sodipodi="http://sodipodi.sourceforge.net/DTD/sodipodi-0.dtd" xmlns:inkscape="http://www.inkscape.org/namespaces/inkscape" id="svg2985" version="1.1" inkscape:version="0.48.2 r9819" width="400" height="86.604652" xml:space="preserve" sodipodi:docname="02837219.pdf"><metadata id="metadata2991"><rdf:RDF><cc:Work rdf:about=""><dc:format>image/svg+xml</dc:format><dc:type rdf:resource="http://purl.org/dc/dcmitype/StillImage"/><dc:title/></cc:Work></rdf:RDF></metadata><defs id="defs2989"><clipPath clipPathUnits="userSpaceOnUse" id="clipPath2999"><path d="m 0,0 841.89,0 0,595.276 L 0,595.276 0,0 z" id="path3001" inkscape:connector-curvature="0"/></clipPath></defs><sodipodi:namedview pagecolor="#ffffff" bordercolor="#666666" borderopacity="1" objecttolerance="10" gridtolerance="10" guidetolerance="10" inkscape:pageopacity="0" inkscape:pageshadow="2" inkscape:window-width="1920" inkscape:window-height="1028" id="namedview2987" showgrid="false" fit-margin-left="0.5" fit-margin-top="0.5" fit-margin-bottom="0.5" fit-margin-right="0.5" inkscape:zoom="2.5373105" inkscape:cx="281.4602" inkscape:cy="-18.299399" inkscape:window-x="-8" inkscape:window-y="-8" inkscape:window-maximized="1" inkscape:current-layer="g2993"/><g id="g2993" inkscape:groupmode="layer" inkscape:label="02837219" transform="matrix(1.25,0,0,-1.25,-53.944597,447.63178)"><g id="g2995" transform="matrix(0.46382284,0,0,0.46382284,7.6355668,174.92838)"><g id="g2997" clip-path="url(#clipPath2999)"><g id="g3003" transform="translate(77.4436,283.5325)"><path d="M 0,0 94.14,0 108.625,-23.549 0,-23.549 0,0 z m 0,36.791 0,-23.382 85.892,0 -14.382,23.382 -71.51,0 z m 92.143,13.408 -92.143,0 0,23.424 98.318,0 c 0.047,-0.92 0.069,-1.847 0.061,-2.794 -0.08,-8.717 -2.166,-15.435 -6.236,-20.63 m -44.869,60.335 -47.274,0 0,-23.506 95.374,0 c -6.892,16.061 -25.037,23.506 -48.1,23.506" style="fill:#211f5e;fill-opacity:1;fill-rule:nonzero;stroke:none" id="path3005" inkscape:connector-curvature="0"/></g><g id="g3007" transform="translate(458.8404,304.2985)"><path d="M 0,0 -13.341,0 -20.687,-29.836 -28.725,0 -42.402,0 -29.583,-35.902 c 0.684,-1.966 1.796,-4.189 1.796,-6.327 0,-1.453 -0.683,-3.589 -1.877,-4.532 -1.201,-0.942 -3.851,-1.112 -5.307,-1.112 -1.108,0 -2.217,0.085 -3.329,0.085 l 0,-9.919 c 1.112,0 2.221,-0.17 3.329,-0.17 5.473,0 12.402,-0.344 16.157,4.36 1.8,2.31 3.256,6.756 4.194,9.576 L 0,0 z m -5.296,18.635 -15.07,0 -6.135,-12.755 9.775,0 11.43,12.755 z m 111.032,-62.964 0,9.406 21.885,24.446 -19.406,0 0,10.433 35.052,0 0,-10.174 -21.204,-23.679 22.657,0 0,-10.432 -38.984,0 z m 72.41,0 0,24.793 c 0,2.821 0.17,6.242 -2.136,8.292 -1.198,1.111 -2.824,1.54 -4.45,1.54 -1.877,0 -3.414,-0.514 -4.87,-1.711 -2.994,-2.48 -2.82,-6.667 -2.82,-10.172 l 0,-22.742 -12.484,0 0,60.356 12.484,0 0,-20.602 c 1.962,3.505 8.289,5.558 12.051,5.558 2.912,0 6.412,-0.771 8.806,-2.48 5.13,-3.677 5.98,-8.636 5.98,-14.534 l 0,-28.298 -12.561,0 z m 33.85,0 -12.565,0 0,60.356 12.565,0 0,-60.356 z m 94.801,13.593 c 0,11.117 -10.938,13.083 -19.486,14.875 -2.31,0.515 -7.524,1.114 -7.524,4.274 0,3.163 3.762,3.59 6.153,3.59 2.398,0 5.125,-0.854 6.667,-2.82 0.683,-0.853 0.942,-2.563 1.112,-3.588 l 11.796,0.599 c -0.514,10.853 -9.656,15.044 -19.405,15.044 -8.973,0 -18.467,-3.592 -18.467,-14.019 0,-17.696 26.331,-11.288 26.331,-19.237 0,-3.503 -3.585,-4.104 -6.323,-4.104 -5.643,0 -8.636,1.626 -9.401,7.353 l -11.97,-0.426 c 0,-1.454 0.081,-2.651 0.425,-4.102 2.224,-9.151 11.626,-12.31 20.089,-12.31 9.66,0 20.003,3.418 20.003,14.871 m -46.766,11.089 c 0,3.594 0.166,8.727 -1.205,12.06 -3.249,7.698 -11.541,8.895 -18.891,8.895 -10.008,0 -18.304,-4.276 -18.903,-15.31 l 11.633,0 c -0.173,4.36 4.272,5.56 7.78,5.56 2.649,0 6.755,-0.684 6.755,-4.104 0,-3.165 -4.619,-3.335 -6.84,-3.675 -9.579,-1.37 -21.808,-2.484 -21.808,-15.054 0,-8.976 6.841,-14.28 15.392,-14.28 6.327,0 9.069,1.881 13.939,5.304 l 0.089,-4.018 12.066,0 -0.007,24.622 z M 247.54,-29.904 c -2.136,-3.679 -6.157,-5.734 -10.348,-5.734 -2.908,0 -5.901,1.373 -5.901,4.707 0,5.731 9.154,5.813 13.17,6.84 1.028,0.257 2.051,0.599 3.079,1.025 l 0,-6.838 z m -430.25,5.798 -14.103,0.939 c -0.086,-6.839 -6.497,-11.109 -12.908,-11.109 -3.421,0 -6.67,1.109 -9.316,3.245 -5.132,4.277 -6.157,11.029 -6.157,17.271 0,10 4.017,19.915 15.473,19.915 4.702,0 8.891,-1.792 11.282,-6.07 0.515,-1.025 1.026,-2.053 1.284,-3.161 l 13.591,0.938 c -0.169,1.456 -0.598,2.74 -1.024,4.102 -3.589,10.689 -14.276,15.56 -24.963,15.56 -18.892,0 -30.26,-12.905 -30.26,-31.373 0,-12.653 5.985,-25.046 18.206,-29.833 3.761,-1.452 7.865,-1.962 11.884,-1.962 9.83,0 18.976,3.588 24.021,12.394 1.625,2.817 2.65,5.981 2.99,9.144 m 46.932,-1.711 0,2.14 c 0,13.673 -7.01,24.961 -21.799,24.961 -13.593,0 -22.396,-10.172 -22.396,-23.426 0,-13.592 8.376,-23.421 22.396,-23.421 9.746,0 18.125,4.617 21.287,14.105 l -12.653,0.854 c -1.881,-3.336 -4.358,-4.699 -8.289,-4.699 -5.815,0 -8.808,4.017 -9.576,9.486 l 31.03,0 z m -13.248,9.573 -17.699,0 c 1.37,5.045 4.104,7.611 9.493,7.611 4.528,0 7.776,-3.159 8.206,-7.611 m 57.446,-14.445 c 0,11.116 -10.944,13.083 -19.494,14.874 -2.307,0.514 -7.521,1.114 -7.521,4.276 0,3.161 3.759,3.588 6.155,3.588 2.395,0 5.125,-0.854 6.667,-2.82 0.686,-0.853 0.941,-2.564 1.112,-3.59 l 11.798,0.601 c -0.514,10.852 -9.661,15.044 -19.408,15.044 -8.975,0 -18.464,-3.592 -18.464,-14.019 0,-17.698 26.33,-11.288 26.33,-19.237 0,-3.505 -3.589,-4.104 -6.327,-4.104 -5.64,0 -8.634,1.625 -9.402,7.354 l -11.968,-0.426 c 0,-1.456 0.084,-2.652 0.426,-4.102 2.223,-9.153 11.625,-12.313 20.091,-12.313 9.659,0 20.005,3.422 20.005,14.874 M -41.319,-44.281 -59.611,-16.754 -42.517,0 -58.843,0 -72.52,-15.13 l 0,31.202 -12.568,0 0,-60.353 12.568,0 0,14.706 4.102,4.104 11.116,-18.81 15.983,0 z m 96.083,33.51 0,11.455 c -0.765,0.087 -1.453,0.17 -2.225,0.17 -5.979,0 -9.316,-2.561 -11.452,-8.117 l 0,7.263 -12.31,0 0,-44.281 12.912,0 0,14.445 c 0,2.225 0,4.533 0.081,6.756 0.17,7.18 1.201,12.566 10.004,12.566 1.024,0 1.966,-0.085 2.99,-0.257 m 47.871,-11.199 c 0,13.25 -8.548,23.254 -22.14,23.254 -14.364,0 -23.68,-9.32 -23.68,-23.683 0,-13.592 8.636,-23.164 22.479,-23.164 13.766,0 23.341,9.918 23.341,23.593 m -12.908,0.514 c 0,-6.582 -2.225,-13.847 -10,-13.847 -7.609,0 -10.008,7.008 -10.008,13.42 0,6.582 2.569,13.078 10.174,13.078 7.439,0 9.834,-6.325 9.834,-12.651 m -293.781,42.796 -14.681,0 -7.894,9.966 11.549,0 3.815,-5.779 3.64,5.779 11.724,0 -8.153,-9.966 z" style="fill:#211f5e;fill-opacity:1;fill-rule:nonzero;stroke:none" id="path3009" inkscape:connector-curvature="0"/></g></g></g></g></svg>