<svg xmlns="http://www.w3.org/2000/svg" xmlns:xlink="http://www.w3.org/1999/xlink" width="217.497" height="89.909" viewBox="0 0 217.497 89.909">
  <defs>
    <clipPath id="clip-path">
      <path id="Pfad_12" data-name="Pfad 12" d="M0-590.049H217.5v-89.909H0Z" transform="translate(0 679.958)" fill="none"/>
    </clipPath>
  </defs>
  <g id="Gruppe_16" data-name="Gruppe 16" transform="translate(0 679.958)">
    <g id="Gruppe_15" data-name="Gruppe 15" transform="translate(0 -679.958)" clip-path="url(#clip-path)">
      <g id="Gruppe_5" data-name="Gruppe 5" transform="translate(6.199 0)">
        <path id="Pfad_2" data-name="Pfad 2" d="M-823.788-22.984c-3.046-.152-5.764-.384-8.484-.4-2.657-.01-5.315.185-7.971.327-3.722.2-7.441.481-11.165.635a43.013,43.013,0,0,1-9.562-.218,8.558,8.558,0,0,0-1.99-.055c-3.122.174-6.245.342-9.363.578-2.12.16-4.231.447-6.349.641-.927.085-1.862.108-2.794.108a47.779,47.779,0,0,0-7.343.63c-2.1.325-4.229.463-6.351.588a31.711,31.711,0,0,1-3.586-.095,43.6,43.6,0,0,0-7.758.543c-1.583.2-3.182.262-4.772.4-2.25.2-4.5.44-6.749.593-1.526.1-3.062.046-4.59.134-3.382.194-6.759.466-10.142.644-1.994.1-4,.074-5.992.139-.859.028-1.714.186-2.574.213-2.2.067-4.391.1-6.587.132a1.3,1.3,0,0,1-1.162-.656,3.71,3.71,0,0,1-.242-1,13.774,13.774,0,0,1,3.13-.768c2.454-.187,4.906-.4,7.359-.58.663-.049,1.332-.012,2-.057,3.25-.22,6.5-.459,9.75-.682.6-.041,1.2-.054,1.8-.055,5.062-.008,10.091-.607,15.14-.855,1.584-.078,3.151-.45,4.733-.614,1.917-.2,3.84-.345,5.764-.467.927-.059,1.861-.019,2.792-.005a13.221,13.221,0,0,1,2.552.2,7.567,7.567,0,0,0,2.964-.134c2.873-.589,5.81-.546,8.685-.941,3.563-.489,7.171-.267,10.71-.956a29.428,29.428,0,0,1,3.779-.262c1.261-.078,2.522-.214,3.784-.221,1.857-.01,3.716.024,5.57.126a37.209,37.209,0,0,0,7.943.016c1.1-.174,2.237-.106,3.356-.176,3.719-.233,7.435-.488,11.154-.714,1.789-.109,3.58-.2,5.371-.242.726-.019,1.455.095,2.183.149a4.612,4.612,0,0,0,1.386.083c1.343-.34,2.629.145,3.943.169a3.91,3.91,0,0,1,1.353.316,1.443,1.443,0,0,1,.738.613c.928,1.973.811,3.542-.5,4.992a9.446,9.446,0,0,1-2.307,1.879,37.1,37.1,0,0,0-5.625,4.413,13.428,13.428,0,0,0-1.78,1.881A11.127,11.127,0,0,0-833.4-9.378a59.9,59.9,0,0,1-3.012,5.84A12.569,12.569,0,0,0-837.776.189c-.172.983-.4,1.956-.547,2.942a7.3,7.3,0,0,0,.219,3.155,58.752,58.752,0,0,0,3.318,8.958,9.555,9.555,0,0,0,.914,1.543,21.059,21.059,0,0,1,3.051,6.031c1.526,4.677,2.224,9.436.946,14.311-.021,2.164-1.244,3.89-2.1,5.748a14.464,14.464,0,0,0-.786,1.6,16.71,16.71,0,0,1-2.381,4.8c-.349.482-.61,1.027-.943,1.6l-1.625.5a1.074,1.074,0,0,1-.551-1.243A9.289,9.289,0,0,1-837.5,48.1a31.824,31.824,0,0,0,2.456-5.228c.379-.993.832-1.958,1.283-2.922a12.259,12.259,0,0,0,1.383-5.752,2.874,2.874,0,0,1,.036-.6c.612-3.6-.284-6.984-1.5-10.316a19.7,19.7,0,0,0-2.173-4.247,28.976,28.976,0,0,1-3.837-8.507,24.533,24.533,0,0,0-.709-2.495,12.572,12.572,0,0,1-.26-7.083,23.129,23.129,0,0,1,4.287-9.776,15.862,15.862,0,0,0,.852-1.35,13.741,13.741,0,0,1,2.925-3.511,14.092,14.092,0,0,0,1.411-1.4c1.778-1.989,3.9-3.611,5.793-5.478.425-.419.892-.8,1.278-1.254a5.085,5.085,0,0,0,.481-1.165" transform="translate(949.313 26.486)" fill="#ff4a48"/>
      </g>
      <g id="Gruppe_6" data-name="Gruppe 6" transform="translate(124.278 6.992)">
        <path id="Pfad_3" data-name="Pfad 3" d="M-611.77-499.473v1.1c-.159.176-.231.331-.337.361a33.5,33.5,0,0,1-8.285.88c-1.193.03-2.383.171-3.576.227-.853.04-1.708.015-2.562.031-3.387.063-6.776.073-10.16.214-2.922.122-5.838.393-8.756.6-.4.029-.794.1-1.192.119-3.322.174-6.645.336-9.967.513-1.859.1-3.736.091-5.571.362-3.086.454-6.2.588-9.3.95-2.693.315-5.421.532-8.141.678-2.255.121-4.535-.022-6.77.236a44.524,44.524,0,0,1-9.141.331,6,6,0,0,0-1.387.131,12.153,12.153,0,0,1-4.921-.6c-1.587-.42-2.209-1.84-2.77-3.192a4.129,4.129,0,0,1-.067-3.125c.43-1.116.837-2.242,1.32-3.335q1.207-2.732,2.5-5.424a17.588,17.588,0,0,1,1.374-2.426,19.808,19.808,0,0,0,2.862-8.209c.069-.392.054-.8.128-1.19.706-3.733-.149-7.247-1.4-10.736-.9-2.516-2.233-4.821-3.319-7.244-.816-1.819-1.654-3.63-2.42-5.471a21.628,21.628,0,0,1-1.367-8.607,23.31,23.31,0,0,1,3.03-11.247A30.339,30.339,0,0,1-696-571.495c1.855-1.675,3.815-3.335,6.368-3.971.656-.163.648-.191,1.8.165a2.21,2.21,0,0,1-.113.9,4.454,4.454,0,0,1-1.04,1.188,41.261,41.261,0,0,1-3.577,2.521c-2.064,1.24-3.382,3.154-4.779,5.006-.518.686-.975,1.418-1.457,2.132a4.567,4.567,0,0,0-.313.509,24.752,24.752,0,0,0-2.883,8.43,24.008,24.008,0,0,0-.052,5.175,18.149,18.149,0,0,0,1.226,4.4c.912,2.35,1.9,4.679,3.005,6.942a62.5,62.5,0,0,1,2.7,6.2,26.762,26.762,0,0,1,1.626,6.346,27.667,27.667,0,0,1-.015,4.775,30.611,30.611,0,0,1-1.277,6.217,23.3,23.3,0,0,1-2.635,5.779c-.657,1.069-1.16,2.231-1.748,3.343-.868,1.643-1.723,3.295-2.636,4.913a3.044,3.044,0,0,0,.14,3.383,1.687,1.687,0,0,0,.894.71,10.936,10.936,0,0,0,4.526.518,11.147,11.147,0,0,1,3.377-.1,10.825,10.825,0,0,0,1.992.015c3.053-.189,6.1-.421,9.159-.6,1.725-.1,3.455-.093,5.181-.175q2.891-.137,5.778-.355c.725-.056,1.441-.233,2.162-.348a35.249,35.249,0,0,1,5.568-.375,41.666,41.666,0,0,0,6.169-.292c2.1-.313,4.243-.287,6.368-.413,5.047-.3,10.093-.628,15.141-.9,1.993-.106,3.993-.124,5.989-.113,3.327.019,6.651,0,9.967-.3.861-.076,1.714-.231,2.575-.309a9.039,9.039,0,0,1,4.333.3,6.869,6.869,0,0,1,.7.384" transform="translate(704.989 575.581)" fill="#ff4a48"/>
      </g>
      <g id="Gruppe_7" data-name="Gruppe 7" transform="translate(87.565 8.385)">
        <path id="Pfad_4" data-name="Pfad 4" d="M-168.069-342.126c2.316-.887,4.538-1.744,6.768-2.579.162-.061.384.041.672.079l.229,1.3a5.6,5.6,0,0,1-2.216,1.722c-1.379.658-2.727,1.38-4.081,2.089a4.914,4.914,0,0,0-.645.486,15.991,15.991,0,0,0,.475,5.339c.377,1.885.78,3.765,1.135,5.655a11.2,11.2,0,0,1,.085,1.592,2.389,2.389,0,0,1-1.7,2.441,2.7,2.7,0,0,1-1.028-2.11c-.143-2.205-.842-4.3-1.123-6.481-.211-1.638-.574-3.256-.891-5a3.82,3.82,0,0,0-.957.135c-3.054,1.3-6.158,2.512-9.129,3.985-3.044,1.509-6.215,2.7-9.307,4.088a17.405,17.405,0,0,1-2.234.845,5.266,5.266,0,0,1-1.267.075,2.544,2.544,0,0,1-.253-2.228c.586-2.928,1.219-5.847,1.829-8.771q1.076-5.168,2.142-10.338a1.072,1.072,0,0,1,.043-.194c.932-2.247.985-4.673,1.443-7.016.675-3.453,1.419-6.893,2.082-10.348.375-1.956.719-3.923.947-5.9.3-2.649.958-5.223,1.477-7.826q1.11-5.559,2.231-11.117c.039-.2.068-.394.119-.587a2.008,2.008,0,0,1,1.675-1.472,1.766,1.766,0,0,1,1.561,1.071,10.78,10.78,0,0,1,1.006,3.622c.373,3.57.919,7.112,1.511,10.65a73.259,73.259,0,0,0,1.91,8.539c.223.762.319,1.56.483,2.339.356,1.69.66,3.394,1.093,5.064a65.458,65.458,0,0,1,1.412,8.625c.032.264.021.534.071.794q1,5.186,2.028,10.368a6.43,6.43,0,0,0,.407,1.058m-21.985,9.773c1.832-.5,17.271-7.369,18.861-8.362-.052-.53-.064-1.126-.176-1.7-.293-1.5-.662-2.985-.941-4.487-.485-2.612-.99-5.222-1.367-7.85a76.776,76.776,0,0,0-1.3-7.644,37.963,37.963,0,0,1-1-4.27c-.337-2.643-1.167-5.171-1.613-7.788-.59-3.463-1.344-6.9-2.029-10.356-.317.033-.414.356-.474.689-.68,3.788-1.8,7.486-2.191,11.335a47.1,47.1,0,0,1-.961,5.285c-.663,3.043-1.138,6.127-1.7,9.191a8.6,8.6,0,0,0-.38,1.74,24.33,24.33,0,0,1-1.026,6.068c-.55,2.526-1.15,5.041-1.68,7.571-.232,1.1-.3,2.243-.518,3.351-.457,2.329-.963,4.649-1.5,7.229" transform="translate(193.678 394.257)" fill="#ff4a48"/>
      </g>
      <g id="Gruppe_8" data-name="Gruppe 8" transform="translate(135.939 8.915)">
        <path id="Pfad_5" data-name="Pfad 5" d="M-106.619,0a5.864,5.864,0,0,1,1.659,3.908,26.46,26.46,0,0,0,.305,2.967c.54,3.746,1.287,7.474,1.607,11.238.351,4.135,1.618,8.064,2.278,12.122.117.719.262,1.434.378,2.153.539,3.339.66,6.73,1.312,10.059.343,1.75.449,3.547.675,5.433,1.345-.155,2.429-.995,3.823-.783a2.071,2.071,0,0,1-.086.757c-.61,1.027-1.181,2.087-2.506,2.408a.969.969,0,0,0-.645,1.118c.012.2.053.4.082.593.5,3.413.887,6.842,1.715,10.2a2.356,2.356,0,0,1,.152.576,17.535,17.535,0,0,0,.886,5.066,2.139,2.139,0,0,1-.254,1.725c-.3.494-.567,1.005-.852,1.514a.8.8,0,0,1-.982-.453,6.28,6.28,0,0,1-.573-1.48c-.34-1.489-.626-2.99-.934-4.486-.254-1.234-.544-2.462-.759-3.7-.373-2.155-.7-4.318-1.044-6.479a3.576,3.576,0,0,0-.592-1.951c-.63.293-1.271.578-1.9.886-.654.32-1.31.638-1.941,1-1.5.86-2.974,1.735-4.536,2.494-2.922,1.42-5.922,2.668-8.832,4.11-1,.493-2.147.634-3,1.472-.354.348-.9.133-1.291-.15a.99.99,0,0,1-.353-1.079c.45-1.868.94-3.726,1.407-5.59.322-1.286.647-2.572.941-3.864.457-2.007.864-4.025,1.337-6.028.684-2.9,1.465-5.782,1.93-8.736.2-1.242.6-2.45.9-3.676q1.3-5.317,2.6-10.635,1.2-4.923,2.4-9.848c.442-1.8.867-3.61,1.365-5.4.428-1.533.95-3.04,1.428-4.559a5.354,5.354,0,0,0,.381-1.335c.034-.987.566-1.413,1.519-1.565m-12.573,58.593a8.9,8.9,0,0,0,1-.287c1.512-.681,3.036-1.34,4.523-2.073,3.812-1.879,7.609-3.789,11.407-5.7a8.478,8.478,0,0,0,.933-.625,36.974,36.974,0,0,0-.59-6.247q-.674-5.131-1.343-10.262c-.1-.725-.163-1.457-.314-2.17-.345-1.624-.756-3.233-1.1-4.858-.355-1.687-.719-3.375-.974-5.078-.324-2.161-.551-4.337-.8-6.509-.169-1.452-.3-2.909-.467-4.362-.035-.306-.074-.678-.554-.607a1.318,1.318,0,0,0-.2.335c-.877,3.676-1.685,7.369-2.639,11.024-.686,2.628-1.455,5.232-2.01,7.9-.744,3.569-2.066,7.011-2.358,10.681-.719,2.21-.8,4.584-1.719,6.742a3.189,3.189,0,0,0-.143.58c-.463,2.136-.907,4.276-1.393,6.407-.366,1.606-.785,3.2-1.257,5.11" transform="translate(122.866)" fill="#ff4a48"/>
      </g>
      <g id="Gruppe_9" data-name="Gruppe 9" transform="translate(191.381 7.575)">
        <path id="Pfad_6" data-name="Pfad 6" d="M-161.528-436.374a2.564,2.564,0,0,1-1.6,1.26,53.4,53.4,0,0,1-7.044,2.157c-2.673.771-5.4,1.338-8.027,2.282-.063.022-.127.039-.191.06-2.354.757-3.867-.424-3.793-2.97.06-2.06.168-4.12.189-6.181.032-3.129,0-6.259.009-9.388.007-2.064-.015-4.131.078-6.192.164-3.65.431-7.3.6-10.946.09-1.928.037-3.863.109-5.792s.223-3.845.331-5.768c.022-.394,0-.79,0-1.087a2.243,2.243,0,0,0-1.666-.811,5.216,5.216,0,0,1-3-2.168,3.963,3.963,0,0,1,.871-5.2c1.08-.773,2.226-1.454,3.343-2.177l.882-.569q.175-5.582.349-11.157a2.007,2.007,0,0,1,.682-1.843,2.96,2.96,0,0,1,1.681,2.71q0,3.1.013,6.192c0,.791.032,1.581.052,2.529a10.18,10.18,0,0,0,1.429-.471c2.892-1.5,5.773-3.013,8.656-4.528.765-.4,1.5-.857,2.288-1.216a4.83,4.83,0,0,1,1.522-.407,1.232,1.232,0,0,1,.856.346c.283.276.091.614-.129.885a12.448,12.448,0,0,1-1.836,1.8,33.07,33.07,0,0,1-5.292,3.124c-1.81.987-3.655,1.908-5.482,2.862-.643.336-1.279.687-1.853,1a18.725,18.725,0,0,0,.019,6.068c.658.669,1.6.529,2.407.8,1.7.567,3.408,1.1,5.135,1.576,1.208.33,2.453.525,3.679.792a2.752,2.752,0,0,1,.745.26,1.645,1.645,0,0,1,.781,1.506,1.434,1.434,0,0,1-1.381,1.22,6.633,6.633,0,0,1-1.586-.13c-1.232-.262-2.451-.583-3.675-.877-1.605-.385-3.209-.778-4.818-1.145-.437-.1-.892-.122-1.379-.184a25.161,25.161,0,0,0-.543,6.213,23.838,23.838,0,0,1-.271,5.174,3.715,3.715,0,0,0-.023,1.586,15.071,15.071,0,0,1,.1,4.354,35.964,35.964,0,0,1-.243,4.175c-.322,2.045,0,4.09-.207,6.139s-.081,4.123-.084,6.186a9.929,9.929,0,0,0,.094,1.593,27.9,27.9,0,0,1,.114,6.567,2.289,2.289,0,0,0,.4,1.978c1.147-.353,2.335-.725,3.527-1.085a23.247,23.247,0,0,1,4.273-.97c1.18-.125,2.323-.562,3.5-.784a23.585,23.585,0,0,1,3.354-.447,1.957,1.957,0,0,1,2.055,1.108m-19.214-46.68v-3.158c-.436.222-.723.344-.985.507-.64.4-1.715.555-1.5,1.563.185.85,1.158.959,1.917,1.16a2.081,2.081,0,0,0,.565-.071" transform="translate(186.141 502.867)" fill="#ff4a48"/>
      </g>
      <g id="Gruppe_10" data-name="Gruppe 10" transform="translate(165.676 8.054)">
        <path id="Pfad_7" data-name="Pfad 7" d="M-150.478-285.3a6.58,6.58,0,0,0-.976.276,71.189,71.189,0,0,1-8.76,3.275c-.694.218-1.357.535-2.042.784a2.734,2.734,0,0,1-.956.237c-.837-.023-1.613-.2-1.789-1.349a2.973,2.973,0,0,1,1.83-1.552,37.217,37.217,0,0,1,4.094-1.567,40,40,0,0,0,5.233-1.925c1.093-.466,2.366-.434,3.322-1.239a7.958,7.958,0,0,1,1.94.13c.687.216.89.943,1.028,1.6a4.653,4.653,0,0,1,.164,1.378,51.778,51.778,0,0,0-.122,7.139,23.891,23.891,0,0,1-1.034,6.676c-.367,1.477-.93,2.906-1.3,4.381a8.987,8.987,0,0,1-1.976,3.638,12.965,12.965,0,0,1-5.267,3.821,7.182,7.182,0,0,1-2.533.432,10.217,10.217,0,0,1-7.393-2.893,14.927,14.927,0,0,1-3.5-5.464,55.932,55.932,0,0,1-2.618-10.011,10.748,10.748,0,0,1-.1-1.792c-.018-.6.029-1.2-.035-1.8a27.949,27.949,0,0,1,.441-8.3c.4-2.088.667-4.2,1.021-6.3a27.894,27.894,0,0,1,1.005-4.461c.947-2.764,1.8-5.562,2.7-8.342a17.819,17.819,0,0,1,2.012-4.1c.57-.89,1-1.867,1.546-2.775a26.5,26.5,0,0,1,2.357-3.692,57.831,57.831,0,0,1,8.97-8.762,13.554,13.554,0,0,1,1.145-.8.939.939,0,0,1,1.112.126,1.008,1.008,0,0,1,.452,1.21,13.283,13.283,0,0,1-.924,1.532,2.8,2.8,0,0,1-.579.546,72.419,72.419,0,0,0-6.931,6.88,15.786,15.786,0,0,0-2.8,3.86,30.7,30.7,0,0,1-2.3,3.93c-1.107,1.612-1.469,3.548-2.063,5.374-.738,2.269-1.419,4.557-2.069,6.853a17.477,17.477,0,0,0-.581,2.93,50.12,50.12,0,0,1-1.141,6.671,22.128,22.128,0,0,0-.5,4.139,41.7,41.7,0,0,0,3.277,17.294,7.813,7.813,0,0,0,3.68,4.053,7.015,7.015,0,0,0,6.343.3,8.588,8.588,0,0,0,3.329-2.471,7.4,7.4,0,0,0,1.313-2.2c.736-2.273,1.382-4.578,1.964-6.9a14.59,14.59,0,0,0,.382-3.158,34.275,34.275,0,0,0-.171-6.77c-.044-.254-.113-.5-.194-.857" transform="translate(173.407 328.778)" fill="#ff4a48"/>
      </g>
      <g id="Gruppe_11" data-name="Gruppe 11" transform="translate(69.32 6.796)">
        <path id="Pfad_8" data-name="Pfad 8" d="M-67.384-192.169a17.557,17.557,0,0,0,.17,2.486,50,50,0,0,1,.538,7.143c.29,4.237.6,8.473.838,12.712.207,3.65.32,7.306.5,10.958.047.924.239,1.84.315,2.763.124,1.509.219,3.022.3,4.534a2.213,2.213,0,0,1-.155.966c-.313.72-.6,1.741-1.494,1.641-.911-.1-.931-1.146-1.02-1.932a5.578,5.578,0,0,1-.014-1,43.157,43.157,0,0,0-.473-5.956c-.042-.593-.166-1.181-.207-1.774-.276-3.912-.55-7.825-.8-11.739-.193-2.988-.351-5.979-.525-8.968-.143-2.456-.262-4.914-.442-7.368-.062-.854-.273-1.7-.441-2.691a7.885,7.885,0,0,0-1.308.429c-.642.345-1.225.8-1.862,1.154a.905.905,0,0,1-1.342-.9,2.473,2.473,0,0,1,1.4-2.239c.955-.447,1.844-1.036,2.771-1.568L-71.915-213.7a2.553,2.553,0,0,0-.719-.408,12.679,12.679,0,0,1-3.8-1.713c-1.683-.888-1.614-1.955.189-3.094l3.807,1.716c.6-.29.531-.719.517-1.1-.022-.6-.109-1.191-.124-1.788a1.268,1.268,0,0,1,1.014-1.362,1.593,1.593,0,0,1,1.2,1.353c.143.913.407,1.813.468,2.729a1.335,1.335,0,0,0,1.127,1.407,53,53,0,0,1,8.79,3.191q1.374.593,2.73,1.225a9.4,9.4,0,0,1,3.708,3.252,3.221,3.221,0,0,1,.019,4.074,19.408,19.408,0,0,1-3.52,4.056,10.821,10.821,0,0,0-1.311,1.227,23.957,23.957,0,0,1-6.205,4.619c-1.112.577-2.123,1.351-3.357,2.15m-.291-3.325a4.561,4.561,0,0,0,.854-.242,19.379,19.379,0,0,0,4.254-2.938c1.343-1.288,2.767-2.494,4.061-3.827a20.864,20.864,0,0,0,3.063-3.545,2.785,2.785,0,0,0-1.766-2.12c-2.251-.983-4.5-1.985-6.744-2.973-.852-.374-1.7-.756-2.569-1.092a3.3,3.3,0,0,0-2.185-.308c-.5,1.378.139,2.732.147,4.1.009,1.461.121,2.922.19,4.383.066,1.393.1,2.789.21,4.178.116,1.425.311,2.843.485,4.387" transform="translate(77.652 221.451)" fill="#ff4a48"/>
      </g>
      <g id="Gruppe_12" data-name="Gruppe 12" transform="translate(0 33.148)">
        <path id="Pfad_9" data-name="Pfad 9" d="M0-13.573a1.207,1.207,0,0,1,1.762-.747,5.175,5.175,0,0,1,.969.689c.522.376,1.046.75,1.667,1.195.118-.958.171-1.739.324-2.5a.9.9,0,0,1,.871-.7.985.985,0,0,1,1.008.51,5.159,5.159,0,0,1,.531,1.478A29.46,29.46,0,0,1,7.46-10.48a3.147,3.147,0,0,0,.761,1.963A86.861,86.861,0,0,0,14.51-1.306C16.161.333,17.736,2.049,19.4,3.667c2.131,2.066,2.385,4.638,2.122,7.367a2.3,2.3,0,0,1-.392.9c-1.006,1.644-1.938,3.345-3.075,4.894a31.447,31.447,0,0,1-2.986,3.182q-2.089,2.141-4.208,4.253a2.026,2.026,0,0,0-.636,1.978,7.433,7.433,0,0,1-.275,3.741,2.192,2.192,0,0,1-.531.807.7.7,0,0,1-1.158-.224,7.589,7.589,0,0,1-.334-1.343c-.068-.378-.076-.768-.106-1.093-.481-.285-.71.006-.943.22-.587.539-1.139,1.119-1.751,1.627a.946.946,0,0,1-.742.076.645.645,0,0,1-.41-.81,3.961,3.961,0,0,1,.606-1.428,27.111,27.111,0,0,1,2.108-2.378,2.435,2.435,0,0,0,.7-2.347,59.633,59.633,0,0,1-.672-9.744C6.7,11.5,6.43,9.647,6.265,7.8c-.059-.661-.138-1.321-.2-1.981q-.442-4.461-.88-8.923c-.1-1.058-.254-2.116-.284-3.177A3.8,3.8,0,0,0,3.674-9.129q-.513-.473-1-.97a17.99,17.99,0,0,1-1.509-1.586A20.075,20.075,0,0,1,0-13.573M10.005,21.8a23.3,23.3,0,0,0,3.359-2.815c2.186-2.1,3.6-4.758,5.163-7.3a2.753,2.753,0,0,0,.3-1.127A5.713,5.713,0,0,0,16.874,5.57c-.915-.864-1.762-1.8-2.613-2.732C12.515.93,10.786-1,9.05-2.914a1.135,1.135,0,0,0-.283-.278,6.4,6.4,0,0,0-.691-.252,6.419,6.419,0,0,0-.055.731q.2,3.482.411,6.964c.024.4.093.792.129,1.189.084.924.186,1.847.232,2.773a20.713,20.713,0,0,0,.182,3.973A29.038,29.038,0,0,1,9.6,18.709a30.9,30.9,0,0,0,.408,3.092" transform="translate(0 15.641)" fill="#ff4a48"/>
      </g>
      <g id="Gruppe_13" data-name="Gruppe 13" transform="translate(35.233 31.302)">
        <path id="Pfad_10" data-name="Pfad 10" d="M-32.808-118.12c-.549-.739-1.27-.571-1.9-.689a18.348,18.348,0,0,1-1.925-.415,2.03,2.03,0,0,1-.787-3.016,7.167,7.167,0,0,1,2.121-1.774c.821-.432,1.647-.856,2.522-1.311a13.017,13.017,0,0,0,.114-1.388c-.046-2.059-.127-4.118-.174-6.178a8.1,8.1,0,0,1,.111-1.387c.208-1.372.558-1.7,1.91-1.833a1.084,1.084,0,0,1,1.246,1,7.477,7.477,0,0,1-.2,2.364c-.583,1.9-.276,3.8-.313,5.859a3.879,3.879,0,0,0,1.036-.121,18.075,18.075,0,0,0,1.758-.94c1.6-.944,3.188-1.912,4.793-2.848a2.4,2.4,0,0,1,.925-.306,1.374,1.374,0,0,1,1.427.489c.232.339.042.837-.524,1.363a2.348,2.348,0,0,1-.463.378c-2.286,1.215-4.263,2.93-6.6,4.06-.771.373-1.517.8-2.3,1.211v2.937c1.581.264,3.143.456,4.671.8,1.479.331,2.924.816,4.194,1.179.228.3.345.394.381.512.719,2.338.713,2.355-1.632,1.794-1.158-.277-2.3-.639-3.447-.948-.834-.224-1.669-.454-2.515-.623a12.62,12.62,0,0,0-1.531-.129c-.136.156-.292.251-.3.352a27.28,27.28,0,0,1-.738,4.916,8.662,8.662,0,0,0-.106,1.39c-.127,2.122-.28,4.243-.371,6.367-.094,2.189-.125,4.381-.188,6.571-.025.857-.079,1.713-.088,2.569a4.317,4.317,0,0,0,.131.985,1.169,1.169,0,0,0,1.29.984,24.717,24.717,0,0,0,2.751-.427c1.812-.415,3.6-.928,5.415-1.331a14.538,14.538,0,0,1,2.37-.233.915.915,0,0,1,.992.512A1.223,1.223,0,0,1-19.11-94a5.246,5.246,0,0,1-1.621.7c-2.81.522-5.551,1.3-8.3,2.06a16.661,16.661,0,0,1-2.948.295,1.85,1.85,0,0,1-1.982-1.347,8.484,8.484,0,0,1-.491-3.73c.227-3.446.463-6.892.688-10.338.139-2.115.236-4.233.406-6.345.148-1.842.372-3.678.552-5.424m.036-3.443c-.1-.059-.312-.241-.368-.2a2.7,2.7,0,0,0-.457.512c.108.06.212.161.324.171.272.024.5-.051.5-.481" transform="translate(37.807 136.119)" fill="#ff4a48"/>
      </g>
      <g id="Gruppe_14" data-name="Gruppe 14" transform="translate(25.287 32.167)">
        <path id="Pfad_11" data-name="Pfad 11" d="M-.237-2.052c.228-.111.48-.342.691-.31a1.233,1.233,0,0,1,.808.459A6.4,6.4,0,0,1,1.944-.275a47.858,47.858,0,0,1,1.22,8.45c.227,2.845.508,5.686.752,8.531.165,1.918.3,3.838.46,5.756.323,3.766.665,7.53.984,11.3.078.926.1,1.856.149,2.785.092,1.591.143,3.186.308,4.769a2.291,2.291,0,0,1-.446,1.674,1.082,1.082,0,0,1-1.923-.213,2.115,2.115,0,0,1-.18-.566c-.149-1.316-.322-2.63-.413-3.951-.164-2.385-.266-4.774-.413-7.161-.176-2.844-.234-5.7-.663-8.522-.04-.263-.049-.53-.07-.795-.183-2.315-.372-4.63-.544-6.946-.059-.794-.034-1.6-.121-2.386C.63,8.687.167,4.933-.22,1.17A32.068,32.068,0,0,1-.237-2.052" transform="translate(0.273 2.365)" fill="#ff4a48"/>
      </g>
    </g>
  </g>
</svg>
